<svg xmlns="http://www.w3.org/2000/svg" viewBox="0 0 512 512">
  <defs>
    <linearGradient id="bg" x1="0" y1="0" x2="0" y2="1">
      <stop offset="0" stop-color="#C2603A"/>
      <stop offset="1" stop-color="#8F3F1F"/>
    </linearGradient>
    <linearGradient id="card" x1="0" y1="0" x2="0" y2="1">
      <stop offset="0" stop-color="#FFFFFF"/>
      <stop offset="1" stop-color="#FAF2E4"/>
    </linearGradient>
  </defs>
  <rect width="512" height="512" rx="96" fill="url(#bg)"/>
  <g transform="translate(256 268)">
    <g transform="rotate(-10)">
      <rect x="-120" y="-150" width="200" height="260" rx="14" fill="url(#card)" stroke="#E5E0D8" stroke-width="3"/>
      <rect x="-100" y="-120" width="160" height="8" rx="4" fill="#C2603A" opacity="0.7"/>
      <rect x="-100" y="-96" width="120" height="6" rx="3" fill="#4A7CA5" opacity="0.55"/>
      <rect x="-100" y="-78" width="140" height="6" rx="3" fill="#4A7CA5" opacity="0.35"/>
      <rect x="-100" y="-60" width="90" height="6" rx="3" fill="#4A7CA5" opacity="0.35"/>
    </g>
    <g transform="rotate(6) translate(30 -8)">
      <rect x="-120" y="-150" width="200" height="260" rx="14" fill="url(#card)" stroke="#E5E0D8" stroke-width="3"/>
      <circle cx="-20" cy="-50" r="28" fill="#C2603A" opacity="0.85"/>
      <rect x="-100" y="0" width="160" height="8" rx="4" fill="#1C1C1E" opacity="0.25"/>
      <rect x="-100" y="22" width="100" height="6" rx="3" fill="#1C1C1E" opacity="0.18"/>
    </g>
  </g>
  <g stroke="#FAF8F4" stroke-width="8" stroke-linecap="round" fill="none" opacity="0.9">
    <path d="M128 405 Q 256 360, 384 405"/>
    <path d="M160 420 L 176 405 L 160 390" />
    <path d="M352 420 L 336 405 L 352 390" />
  </g>
</svg>
